<svg width="1000" height="1000" viewBox="0 0 264.583 264.583" xml:space="preserve" xmlns:xlink="http://www.w3.org/1999/xlink" xmlns="http://www.w3.org/2000/svg"><defs><linearGradient id="a"><stop style="stop-color:#92191c;stop-opacity:1" offset="0"/><stop style="stop-color:#a11c38;stop-opacity:1" offset="1"/></linearGradient><linearGradient xlink:href="#a" id="b" gradientUnits="userSpaceOnUse" x1="100.048" y1="229.172" x2="97.548" y2="233.865"/></defs><path style="opacity:1;fill:url(#b);fill-opacity:1;stroke-width:1.47155;stroke-linecap:round;stroke-linejoin:round" d="M98.99 228.83a7.578 7.578 0 0 1-1.807-.246c.031.156.115.316.2.451.07.11.186.195.284.28a2 2 0 0 0-.185 1.383.853.853 0 0 0-.49.283.93.93 0 0 0-.214.532c-.014.194.029.39.113.566.087.181.22.342.388.452.168.11.372.167.572.149a.829.829 0 0 0 .424-.165c.425.21.942.225 1.378.039.402-.172.729-.51.887-.917l.478-.203a.626.626 0 0 0 .13-.069.276.276 0 0 0 .092-.114.267.267 0 0 0 .014-.146.562.562 0 0 0-.049-.14l-.1-.22a.664.664 0 0 0 .066-.035.405.405 0 0 0 .092-.07.25.25 0 0 0 .058-.1.24.24 0 0 0 .004-.114.467.467 0 0 0-.04-.108l-.171-.374a.545.545 0 0 0-.069-.119.257.257 0 0 0-.11-.08.263.263 0 0 0-.135-.01.624.624 0 0 0-.13.043l-.203.085c-.024-.121-.041-.24-.091-.353-.044-.098-.055-.124-.117-.212a.928.928 0 0 0 .341-.27.974.974 0 0 0 .194-.438c-.633.195-1.264.243-1.805.24z" transform="translate(-5365.976 -12670.019) scale(55.51197)"/><path style="opacity:1;fill:#fff;fill-opacity:1;stroke-width:1.47155;stroke-linecap:round;stroke-linejoin:round" d="M100.778 230.08v.001c-.008 0-.013.002-.02.003a.29.29 0 0 0-.038.014l-1.987.872a.364.364 0 0 1-.108.36c-.046.04-.1.07-.16.087a.597.597 0 0 1-.18.024.795.795 0 0 1-.385-.105.83.83 0 0 1-.317-.325.517.517 0 0 0-.35.15.599.599 0 0 0-.164.393.85.85 0 0 0 .097.418.816.816 0 0 0 .326.354c.071.04.15.065.232.072a.5.5 0 0 0 .24-.036.56.56 0 0 0 .286-.304.69.69 0 0 0 .042-.387l1.236-.546.18.408a.37.37 0 0 0 .02.035c.007.01.018.02.029.025.012.006.026.007.039.006a.09.09 0 0 0 .037-.012l.268-.12a.199.199 0 0 0 .031-.018.063.063 0 0 0 .02-.03.062.062 0 0 0 0-.035c-.002-.012-.008-.022-.012-.033l-.186-.417.31-.135.19.444a.14.14 0 0 0 .019.033c.008.011.018.019.031.023a.07.07 0 0 0 .038 0 .154.154 0 0 0 .036-.012l.27-.118c.01-.005.022-.01.03-.018a.055.055 0 0 0 .018-.03.07.07 0 0 0-.001-.035.152.152 0 0 0-.013-.033l-.2-.436.25-.112.03-.015a.07.07 0 0 0 .022-.023.05.05 0 0 0 .007-.032c0-.01-.006-.02-.01-.03l-.128-.267c-.006-.012-.011-.024-.021-.034a.077.077 0 0 0-.054-.023zm-3.136 1.36h.01c.091 0 .183.07.23.171.061.135.024.285-.083.334-.107.048-.243-.022-.305-.157-.061-.135-.024-.284.082-.333a.206.206 0 0 1 .066-.015zM99.434 229.088a.552.552 0 0 0-.476.278.535.535 0 0 0-.514-.273.546.546 0 0 0-.494.53.625.625 0 0 0 .09.338c.06.101.146.187.244.252.198.13.44.176.676.177.244.002.496-.043.7-.178a.773.773 0 0 0 .248-.264c.06-.107.09-.23.08-.352a.559.559 0 0 0-.535-.508h-.019zm-.946.173a.4.4 0 0 1 .268.104c.077.07.125.173.129.277l-.267.006a.135.135 0 0 0-.032-.108.136.136 0 0 0-.103-.045.135.135 0 0 0-.1.048.136.136 0 0 0-.028.108l-.262.006c0-.1.04-.199.11-.27a.404.404 0 0 1 .284-.124zm.956 0a.4.4 0 0 1 .397.38l-.267.007a.135.135 0 0 0-.031-.108.137.137 0 0 0-.103-.045.135.135 0 0 0-.1.048.135.135 0 0 0-.029.108l-.261.006c0-.1.04-.199.109-.27a.404.404 0 0 1 .285-.124zm-.48.422.289.423-.262.225-.294-.203z" transform="translate(-5365.976 -12670.019) scale(55.51197)"/></svg>