<?xml version="1.0" encoding="UTF-8"?>
<svg width="49.752mm" height="9.9483mm" version="1.1" viewBox="0 0 49.752 9.9483" xmlns="http://www.w3.org/2000/svg">
 <g transform="translate(-1 -1)">
  <g transform="matrix(.26458 0 0 .26458 -13.597 -18.965)" style="shape-inside:url(#rect741);white-space:pre" aria-label="Foundkey">
   <path d="m61.169 105.06v-11.68h11.2v-4.92h-11.2v-6.4h12.52v-4.92h-18.52v27.92z"/>
   <path d="m87.969 105.54c6.44 0 10.36-4.12 10.36-10.8 0-6.68-3.92-10.8-10.36-10.8s-10.36 4.12-10.36 10.8c0 6.68 3.92 10.8 10.36 10.8zm0-4.4c-2.64 0-4.24-1.72-4.24-4.76v-3.28c0-3.04 1.6-4.76 4.24-4.76s4.24 1.72 4.24 4.76v3.28c0 3.04-1.6 4.76-4.24 4.76z"/>
   <path d="m115.45 105.06h5.92v-20.64h-5.92v13.56c0 2-1.8 3-3.64 3-2.32 0-3.48-1.4-3.48-4v-12.56h-5.92v13.36c0 5 2.76 7.76 6.72 7.76 3.32 0 5.16-1.92 6.08-4.24h0.24z"/>
   <path d="m132.49 105.06v-13.56c0-2 1.8-3 3.64-3 2.32 0 3.48 1.4 3.48 4v12.56h5.92v-13.36c0-5-2.76-7.76-6.72-7.76-3.32 0-5.16 1.92-6.08 4.24h-0.24v-3.76h-5.92v20.64z"/>
   <path d="m163.69 105.06h5.92v-29.6h-5.92v12.72h-0.28c-1.04-2.48-2.8-4.24-6.12-4.24-4.56 0-7.76 3.32-7.76 10.8 0 7.48 3.2 10.8 7.76 10.8 3.32 0 5.08-1.76 6.12-4.24h0.28zm-3.84-4.12c-2.64 0-4.16-1.72-4.16-4.6v-3.2c0-2.88 1.52-4.6 4.16-4.6 2.08 0 3.84 1 3.84 3.16v6.08c0 2.16-1.76 3.16-3.84 3.16z"/>
   <path d="m174.57 105.06h5.92v-7.16l1.96-1.96 6 9.12h7.04l-8.84-12.48 8-8.16h-6.8l-4.32 4.6-2.76 3.24h-0.28v-16.8h-5.92z"/>
   <path d="m208.53 105.54c4.44 0 7.24-1.68 8.84-3.64l-3.2-3.48c-1.28 1.52-3 2.56-5.44 2.56-3.16 0-4.88-1.8-4.88-4.44v-0.36h14.12v-1.76c0-6.44-3.8-10.48-9.96-10.48-6.2 0-10.04 4.12-10.04 10.88 0 6.6 3.64 10.72 10.56 10.72zm-0.48-17.36c2.56 0 4.12 1.68 4.12 4.36v0.32h-8.32v-0.32c0-2.64 1.64-4.36 4.2-4.36z"/>
   <path d="m234.09 93.097-1.8 6h-0.32l-1.88-6-3-8.68h-6.36l8.32 20.52-1.28 3.52h-4.96v4.6h4.08c3.52 0 5.4-1.68 6.6-4.68l9.72-23.96h-6.04z"/>
  </g>
 </g>
</svg>
